<?xml version="1.0" encoding="UTF-8" standalone="no"?>
<!-- Created with Inkscape (http://www.inkscape.org/) -->

<svg
   width="16.933329mm"
   height="13.77877mm"
   viewBox="0 0 16.933329 13.77877"
   version="1.1"
   id="svg1"
   xml:space="preserve"
   xmlns:inkscape="http://www.inkscape.org/namespaces/inkscape"
   xmlns:sodipodi="http://sodipodi.sourceforge.net/DTD/sodipodi-0.dtd"
   xmlns="http://www.w3.org/2000/svg"
   xmlns:svg="http://www.w3.org/2000/svg"><sodipodi:namedview
     id="namedview1"
     pagecolor="#ffffff"
     bordercolor="#000000"
     borderopacity="0.25"
     inkscape:showpageshadow="2"
     inkscape:pageopacity="0.0"
     inkscape:pagecheckerboard="0"
     inkscape:deskcolor="#d1d1d1"
     inkscape:document-units="mm" /><defs
     id="defs1" /><g
     inkscape:label="Layer 1"
     inkscape:groupmode="layer"
     id="layer1"
     transform="translate(41.655236,-93.01)"><g
       id="g1"
       transform="matrix(0.01055036,0,0,0.01055036,-41.655236,93.009994)"
       style="fill:#ffffff"
       inkscape:export-filename="blender icon.svg"
       inkscape:export-xdpi="96"
       inkscape:export-ydpi="96"><path
         fill="#000000"
         d="m 839.77,0 h 10.32 c 21.56,1.06 42.19,7.35 59.51,20.65 q 246.87,189.64 493.73,379.28 c 11.87,9.11 23.36,18.73 34.54,28.7 q 56.92,50.72 96.88,116.58 67.44,111.14 70.25,241.63 v 15.99 c -0.47,9.24 -0.66,18.56 -1.43,27.7 q -9.7,114.1 -70.02,212.7 c -46.81,76.51 -114.63,140.75 -192.77,185.01 q -122.39,69.32 -264.05,76.87 -4.5,0.24 -21.74,0.89 h -23.09 q -40.99,-0.91 -80.39,-6.81 C 860.47,1285.56 772.47,1250.56 697.63,1196.81 Q 652.12,1164.13 613.45,1121.84 553.22,1055.97 519.33,974 496.7,919.29 489.7,860.46 q -1.46,-12.28 -1.43,-20.11 0.05,-19.08 2.6,-40.57 0.15,-1.26 -0.83,-0.46 -144.73,118.51 -290,237.34 -3.75,3.07 -7.51,6.24 -20.88,17.59 -45.54,27.38 c -42.34,16.83 -96.35,13.76 -127.12,-24.02 Q 1.47,1023.67 0,993.21 v -8.49 q 1.52,-24.33 11.31,-45.17 13.75,-29.3 38.65,-50.51 4.2,-3.58 15.84,-12.19 272.64,-201.75 552.09,-408.51 0.61,-0.45 -0.15,-0.45 -148.44,0.37 -297.27,0.47 -11.93,0.01 -19.92,-0.98 -19.19,-2.38 -35.91,-12.05 c -32.98,-19.08 -52.65,-58.58 -44.19,-96.21 13.43,-59.74 68.78,-84.3 125.3,-84.28 q 309.09,0.09 618.11,0.31 0.21,0 0.04,-0.13 -77.44,-62.13 -162.67,-130.78 -13.15,-10.6 -29.65,-23.61 C 760.6,111.98 751.5,99.3 748.28,85.52 743.38,64.54 751.64,44.5 766.85,29.58 785.98,10.81 813.26,1.2 839.77,0 Z m 552.36,747.72 a 342.08,306.1 0 0 0 -342.08,-306.1 342.08,306.1 0 0 0 -342.08,306.1 342.08,306.1 0 0 0 342.08,306.1 342.08,306.1 0 0 0 342.08,-306.1 z"
         id="path1"
         style="fill:#ffffff" /><ellipse
         fill="#000000"
         cx="1049.78"
         cy="729.90997"
         rx="197.8"
         ry="180.46001"
         id="ellipse1"
         style="fill:#ffffff" /></g></g></svg>
