<?xml version="1.0" encoding="UTF-8" standalone="no"?>
<!-- Created with Inkscape (http://www.inkscape.org/) -->

<svg
   width="14.814664mm"
   height="14.964018mm"
   viewBox="0 0 14.814664 14.964018"
   version="1.1"
   id="svg1"
   xml:space="preserve"
   xmlns:inkscape="http://www.inkscape.org/namespaces/inkscape"
   xmlns:sodipodi="http://sodipodi.sourceforge.net/DTD/sodipodi-0.dtd"
   xmlns="http://www.w3.org/2000/svg"
   xmlns:svg="http://www.w3.org/2000/svg"><sodipodi:namedview
     id="namedview1"
     pagecolor="#ffffff"
     bordercolor="#000000"
     borderopacity="0.25"
     inkscape:showpageshadow="2"
     inkscape:pageopacity="0.0"
     inkscape:pagecheckerboard="0"
     inkscape:deskcolor="#d1d1d1"
     inkscape:document-units="mm" /><defs
     id="defs1" /><g
     inkscape:label="Layer 1"
     inkscape:groupmode="layer"
     id="layer1"
     transform="translate(66.561006,-94.872487)"><path
       fill="#000000"
       d="m -62.945632,109.70676 -3.610379,-14.622812 a 0.17049141,0.17049141 0 0 1 0.212762,-0.20478 l 14.473453,4.16882 a 0.17049141,0.17049141 0 0 1 0.07092,0.28697 L -62.66195,109.78895 a 0.17049141,0.17049141 0 0 1 -0.283683,-0.0822 z m -0.150295,-13.515792 a 0.01643857,0.01643857 0 0 0 -0.007,-0.0277 l -3.03362,-0.87547 a 0.01643857,0.01643857 0 0 0 -0.02067,0.0197 l 0.757584,3.06885 a 0.01643857,0.01643857 0 0 0 0.02724,0.008 z m 1.334342,3.18344 a 0.0140902,0.0140902 0 0 0 0.02348,0.007 l 2.24269,-2.15815 a 0.0140902,0.0140902 0 0 0 -0.0061,-0.0235 l -2.987594,-0.85997 a 0.0140902,0.0140902 0 0 0 -0.01738,0.0169 z m -1.068977,-2.94109 a 0.01549922,0.01549922 0 0 0 -0.02583,-0.007 l -2.245508,2.1605 a 0.01549922,0.01549922 0 0 0 0.0066,0.0258 l 2.989002,0.8595 a 0.01549922,0.01549922 0 0 0 0.01926,-0.0188 z m 6.930969,1.82703 a 0.01455987,0.01455987 0 0 0 -0.0061,-0.0244 l -2.994168,-0.8642 a 0.01455987,0.01455987 0 0 0 -0.01785,0.0174 l 0.747251,3.029402 a 0.01455987,0.01455987 0 0 0 0.02395,0.007 z m -3.341254,-0.78529 a 0.01596889,0.01596889 0 0 0 -0.0263,-0.008 l -2.232358,2.14828 a 0.01596889,0.01596889 0 0 0 0.0066,0.0268 l 2.972092,0.854342 a 0.01596889,0.01596889 0 0 0 0.01973,-0.0193 z m 4.68405,4.018052 a 0.01596889,0.01596889 0 0 0 0.02677,0.008 l 2.275569,-2.189622 a 0.01596889,0.01596889 0 0 0 -0.0066,-0.0272 l -3.03127,-0.87265 a 0.01596889,0.01596889 0 0 0 -0.0202,0.0192 z m -1.080717,-2.987592 a 0.01549922,0.01549922 0 0 0 -0.02583,-0.007 l -2.245509,2.160502 a 0.01549922,0.01549922 0 0 0 0.0066,0.0258 l 2.989,0.8595 a 0.01549922,0.01549922 0 0 0 0.01926,-0.0188 z m -8.865084,3.504702 a 0.01549922,0.01549922 0 0 0 0.02583,0.008 l 2.283551,-2.197602 a 0.01549922,0.01549922 0 0 0 -0.0066,-0.0263 l -3.041134,-0.87454 a 0.01549922,0.01549922 0 0 0 -0.01926,0.0183 z m 3.63621,0.99054 a 0.01596889,0.01596889 0 0 0 0.02677,0.008 l 2.243631,-2.15909 a 0.01596889,0.01596889 0 0 0 -0.0066,-0.0272 l -2.987591,-0.858562 a 0.01596889,0.01596889 0 0 0 -0.01973,0.0193 z m -1.067567,-2.93264 a 0.01596889,0.01596889 0 0 0 -0.0263,-0.008 l -2.284022,2.1976 a 0.01596889,0.01596889 0 0 0 0.0066,0.0272 l 3.043012,0.87642 a 0.01596889,0.01596889 0 0 0 0.01973,-0.0193 z m 4.67184,4.03168 a 0.0140902,0.0140902 0 0 0 0.02302,0.007 l 2.289187,-2.20277 a 0.0140902,0.0140902 0 0 0 -0.0056,-0.024 l -3.04771,-0.87594 a 0.0140902,0.0140902 0 0 0 -0.01738,0.0169 z m -3.390102,-0.80643 a 0.01549922,0.01549922 0 0 0 0.0066,0.0263 l 3.038787,0.87688 a 0.01549922,0.01549922 0 0 0 0.01926,-0.0188 l -0.758522,-3.07401 a 0.01549922,0.01549922 0 0 0 -0.02583,-0.008 z m -0.684784,0.19961 a 0.01502955,0.01502955 0 0 0 -0.0066,-0.0254 l -2.987593,-0.86232 a 0.01502955,0.01502955 0 0 0 -0.01879,0.0183 l 0.74584,3.02188 a 0.01502955,0.01502955 0 0 0 0.02536,0.008 z m 1.38084,3.19284 a 0.01643857,0.01643857 0 0 0 0.02724,0.008 l 2.234237,-2.1497 a 0.01643857,0.01643857 0 0 0 -0.0066,-0.0277 l -2.976321,-0.85715 a 0.01643857,0.01643857 0 0 0 -0.02066,0.0197 z m -1.079779,-2.9829 a 0.01643857,0.01643857 0 0 0 -0.02771,-0.008 l -2.242691,2.15861 a 0.01643857,0.01643857 0 0 0 0.0066,0.0273 l 2.986183,0.85856 a 0.01643857,0.01643857 0 0 0 0.02067,-0.0197 z m 0.685723,3.39621 a 0.01455987,0.01455987 0 0 0 -0.0061,-0.0244 l -3.091389,-0.88722 a 0.01455987,0.01455987 0 0 0 -0.01832,0.0174 l 0.770734,3.11957 a 0.01455987,0.01455987 0 0 0 0.02442,0.007 z"
       id="path30"
       style="fill:#ffffff;stroke-width:0.0469673" /></g></svg>
