<?xml version="1.0" encoding="UTF-8" standalone="no"?>
<!-- Created with Inkscape (http://www.inkscape.org/) -->

<svg
   width="18.558666mm"
   height="16.933334mm"
   viewBox="0 0 18.558666 16.933334"
   version="1.1"
   id="svg1"
   xml:space="preserve"
   xmlns:inkscape="http://www.inkscape.org/namespaces/inkscape"
   xmlns:sodipodi="http://sodipodi.sourceforge.net/DTD/sodipodi-0.dtd"
   xmlns="http://www.w3.org/2000/svg"
   xmlns:svg="http://www.w3.org/2000/svg"><sodipodi:namedview
     id="namedview1"
     pagecolor="#ffffff"
     bordercolor="#000000"
     borderopacity="0.25"
     inkscape:showpageshadow="2"
     inkscape:pageopacity="0.0"
     inkscape:pagecheckerboard="0"
     inkscape:deskcolor="#d1d1d1"
     inkscape:document-units="mm" /><defs
     id="defs1" /><g
     inkscape:label="Layer 1"
     inkscape:groupmode="layer"
     id="layer1"
     transform="translate(47.602681,-92.533597)"><g
       id="g1"
       transform="matrix(0.0362474,0,0,0.0362474,-47.602684,91.72093)"
       style="fill:#ffffff"><path
         fill="#000000"
         d="m 512,54.63 v 299.63 q -2.29,19 -18.09,27.85 c -4.98,2.78 -10.95,4.31 -16.65,4.31 q -90,-0.02 -182.33,0.01 -0.48,0 -0.29,0.44 l 21.22,49.25 q 0.19,0.46 0.7,0.45 c 7.24,-0.18 15.88,-0.63 22.71,1.5 16.54,5.15 24.69,21.23 22.47,37.96 -0.95,7.08 -7.34,13.52 -15.03,13.51 q -89.71,-0.1 -178.63,0.04 -5.6,0 -8.3,-1.21 c -7.48,-3.36 -9.97,-9.58 -9.86,-17.59 0.15,-10.25 3.15,-19.03 10.97,-25.98 q 9.36,-8.31 22.58,-8.28 6.04,0.01 11.94,0 0.57,0 0.79,-0.52 l 21.22,-49.25 a 0.25,0.24 11.1 0 0 -0.23,-0.33 q -46.67,-0.01 -92.92,-0.01 c -10.19,0 -10.14,-14.99 -0.28,-14.99 q 176.12,0 352.9,-0.01 c 11.63,0 20.1,-8.81 20.12,-20.43 q 0.01,-10.85 -0.02,-21.89 a 0.35,0.35 0 0 0 -0.54,-0.29 c -6.55,4.4 -13.25,5.84 -21.13,5.84 q -222.63,0 -440.38,-0.02 -10.54,0 -19.42,-5.83 a 0.35,0.35 0 0 0 -0.54,0.3 q 0.1,10.3 -0.04,20.42 c -0.13,9.52 4,17.41 13.19,20.74 q 3.64,1.32 12.21,1.26 28.74,-0.17 53.7,-0.05 c 9.82,0.05 9.95,14.87 -0.38,14.92 q -28.99,0.13 -58.8,-0.03 C 16.17,386.25 1.93,372.67 0,354.21 V 54.41 c 2.12,-17.95 16.12,-32 34.47,-31.99 q 227.27,0.17 440.75,0.01 c 9.44,-0.01 17.47,2.21 24.45,8.15 Q 510.5,39.79 512,54.63 Z m -15,2.43 A 19.58,19.58 0 0 0 477.42,37.48 H 34.58 A 19.58,19.58 0 0 0 15,57.06 v 242.92 a 19.58,19.58 0 0 0 19.58,19.58 H 477.42 A 19.58,19.58 0 0 0 497,299.98 Z M 234.09,386.41 a 0.3,0.3 0 0 0 -0.28,0.18 l -21.32,49.5 a 0.3,0.3 0 0 0 0.28,0.42 h 86.46 a 0.3,0.3 0 0 0 0.28,-0.42 l -21.32,-49.5 a 0.3,0.3 0 0 0 -0.28,-0.18 z m -68.1,88.11 h 180.04 a 1.11,1.11 0 0 0 1.11,-1.11 v -3.57 A 18.54,18.42 0 0 0 328.6,451.42 H 183.42 a 18.54,18.42 0 0 0 -18.54,18.42 v 3.57 a 1.11,1.11 0 0 0 1.11,1.11 z"
         id="path1"
         style="fill:#ffffff" /><path
         fill="#000000"
         d="m 478.9589,150.0857 a 12.62,12.62 0 0 1 -12.642,12.5979 l -95.9398,-0.1674 a 12.62,12.62 0 0 1 -12.598,-12.642 l 0.142,-81.3199 a 12.62,12.62 0 0 1 12.642,-12.5979 l 95.9398,0.1674 a 12.62,12.62 0 0 1 12.598,12.642 z M 464.03,71.41 a 0.37,0.37 0 0 0 -0.37,-0.37 h -90.44 a 0.37,0.37 0 0 0 -0.37,0.37 v 75.8 a 0.37,0.37 0 0 0 0.37,0.37 h 90.44 a 0.37,0.37 0 0 0 0.37,-0.37 z"
         id="path2"
         style="fill:#ffffff" /><path
         fill="#000000"
         d="M 97.51,257.58 A 14.67,14.67 0 0 1 82.84,272.25 H 48.16 A 14.67,14.67 0 0 1 33.49,257.58 V 80.36 A 14.67,14.67 0 0 1 48.16,65.69 H 82.84 A 14.67,14.67 0 0 1 97.51,80.36 Z M 82.5,80.99 A 0.28,0.28 0 0 0 82.22,80.71 H 48.78 a 0.28,0.28 0 0 0 -0.28,0.28 v 175.98 a 0.28,0.28 0 0 0 0.28,0.28 h 33.44 a 0.28,0.28 0 0 0 0.28,-0.28 z"
         id="path3"
         style="fill:#ffffff" /><path
         fill="#000000"
         d="m 263.52,90.87 q -0.1,13.36 0.08,23.83 0.06,3.53 -1.13,5.76 c -3.7,6.89 -13.99,3.87 -13.97,-4.06 q 0.01,-12.62 -0.01,-25.56 a 0.18,0.18 0 0 0 -0.27,-0.16 q -4.44,2.33 -8.95,5.06 -2.67,1.62 -5,1.79 c -7.79,0.55 -10.86,-10.02 -4.03,-13.94 q 11.26,-6.45 22.39,-12.7 c 2.32,-1.3 5.29,-0.94 7.55,0.36 q 9.94,5.72 20.98,11.9 c 9.44,5.3 1.98,18.35 -6.89,13.38 q -5.35,-3 -10.35,-5.88 a 0.27,0.26 16 0 0 -0.4,0.22 z"
         id="path4"
         style="fill:#ffffff" /><rect
         fill="#000000"
         x="387.06"
         y="88.889999"
         width="37.799999"
         height="14.92"
         rx="7.1500001"
         id="rect4"
         style="fill:#ffffff" /><rect
         fill="#000000"
         x="-10.17"
         y="-7.4099998"
         transform="rotate(0.4,-15757.903,9437.2658)"
         width="20.34"
         height="14.82"
         rx="6.9000001"
         id="rect5"
         style="fill:#ffffff" /><rect
         fill="#000000"
         x="-31.42"
         y="-7.48"
         transform="rotate(-0.1,70310.598,-239698.68)"
         width="62.84"
         height="14.96"
         rx="7.29"
         id="rect6"
         style="fill:#ffffff" /><path
         fill="#000000"
         d="m 259.8,134.12 c 18.1,10.48 36.39,20.75 54.4,31.43 2.42,1.43 3.78,3.74 3.79,6.55 q 0.08,30.46 0.02,62.73 c -0.01,3.35 -1.69,5.7 -4.38,7.25 q -26.9,15.41 -53.73,31.01 c -2.28,1.32 -5.36,1.35 -7.62,0.04 q -27.43,-15.87 -54.41,-31.42 c -2.51,-1.45 -3.92,-4 -3.92,-6.86 q 0.03,-33.62 0.02,-62.98 c 0,-2.79 1.77,-5.18 4.13,-6.53 q 27.47,-15.76 53.54,-30.9 4.35,-2.53 8.16,-0.32 z m -42.87,37.69 a 0.31,0.31 0 0 0 0,0.54 l 38.95,22.5 a 0.31,0.31 0 0 0 0.32,0 l 38.93,-22.49 a 0.31,0.31 0 0 0 0,-0.54 L 256.2,149.34 a 0.31,0.31 0 0 0 -0.3,0 z m -7.45,13.59 a 0.34,0.34 0 0 0 -0.51,0.3 v 44.92 a 0.34,0.34 0 0 0 0.17,0.3 l 38.83,22.38 a 0.34,0.34 0 0 0 0.51,-0.3 l 0.01,-44.87 a 0.34,0.34 0 0 0 -0.17,-0.3 z m 93.38,45.54 a 0.34,0.34 0 0 0 0.17,-0.3 v -44.9 a 0.34,0.34 0 0 0 -0.51,-0.3 l -38.83,22.44 a 0.34,0.34 0 0 0 -0.17,0.3 v 44.87 a 0.34,0.34 0 0 0 0.51,0.3 z"
         id="path6"
         style="fill:#ffffff" /><rect
         fill="#000000"
         x="55.32"
         y="141.97"
         width="20.360001"
         height="14.8"
         rx="6.9000001"
         id="rect7"
         style="fill:#ffffff" /><rect
         fill="#000000"
         x="55.32"
         y="181.14"
         width="20.360001"
         height="14.8"
         rx="6.8899999"
         id="rect8"
         style="fill:#ffffff" /><rect
         fill="#000000"
         x="55.32"
         y="220.31"
         width="20.360001"
         height="14.8"
         rx="6.8899999"
         id="rect9"
         style="fill:#ffffff" /><path
         fill="#000000"
         d="m 154.88,253.29 q 10,-5.64 20.89,-12.08 c 10.19,-6.02 17.45,7.29 8.59,12.43 q -10.72,6.22 -22.19,12.8 a 0.28,0.28 0 0 0 -0.01,0.48 q 4.14,2.55 8.76,5.12 3.21,1.8 4.35,3.89 c 2.79,5.13 -1,11.26 -6.82,11.01 q -2.12,-0.09 -4.76,-1.65 -11.76,-6.95 -21.05,-12.36 c -3.69,-2.15 -3.51,-6.98 -3.51,-10.64 q 0.02,-10.87 0.06,-20.19 0.02,-2.81 1.1,-4.65 c 3.02,-5.18 11.21,-4.89 13.36,1.06 q 0.62,1.72 0.61,3.81 -0.03,5.53 -0.05,10.57 -0.01,0.78 0.67,0.4 z"
         id="path9"
         style="fill:#ffffff" /><path
         fill="#000000"
         d="m 357.79,252.87 q -0.06,-5.53 -0.02,-11.4 c 0.07,-10.28 15.14,-10.41 15.03,0.76 q -0.12,12.48 -0.02,23.85 0.05,4.86 -4.51,7.55 -9.12,5.39 -20.22,11.8 -3.02,1.74 -5.34,1.5 c -5.99,-0.61 -9.26,-7.49 -5.14,-12.16 q 1.49,-1.68 4.04,-3.04 4.11,-2.18 8.22,-4.76 a 0.32,0.32 0 0 0 -0.01,-0.55 q -9.96,-5.84 -20.52,-11.76 -3.64,-2.04 -4.72,-4.17 c -3.31,-6.5 3.71,-13.69 10.31,-9.95 q 10.69,6.06 22.16,12.76 0.75,0.44 0.74,-0.43 z"
         id="path10"
         style="fill:#ffffff" /></g></g></svg>
